# xmcd
#
# Track frame offsets: 
#        150
#        19762
#        46559
#        66717
#        94329
#        111655
#        131518
#        157998
#        175273
#        191295
#        209621
#
# Disc length: 3048 seconds
#
# Revision: 0
# Processed by: cddbd v1.5.2PL0 Copyright (c) Steve Scherf et al.
# Submitted via: ExactAudioCopy v1.0b4
#
DISCID=9b0be60b
DTITLE=Michael Milligan and The Altar Boyz - My Time
DYEAR=2013
DGENRE=Blues
TTITLE0=Any Day Now
TTITLE1=Must've Been Voodoo
TTITLE2=Papa Blues
TTITLE3=Trouble's Comin'
TTITLE4=Boogie Woogie Backbeat Social Club
TTITLE5=Bad Case Of You
TTITLE6=First Train
TTITLE7=My Time
TTITLE8=You Know I Love Ya
TTITLE9=Let's Get Busy
TTITLE10=Let It Ride
EXTD=
EXTT0=
EXTT1=
EXTT2=
EXTT3=
EXTT4=
EXTT5=
EXTT6=
EXTT7=
EXTT8=
EXTT9=
EXTT10=
PLAYORDER=
